# xmcd CD database file
#
# Track frame offsets:
#	150
#	34337
#	58807
#	89707
#	119974
#	128373
#
# Disc length: 2158 seconds
#
# Revision: 0
# Processed by: cddbd v1.5PL3 Copyright (c) Steve Scherf et al.
# Submitted via: CDex 1.51
#
DISCID=58086c06
DTITLE=Die Jazzreservisten - Musiktherapie
DYEAR=2000
DGENRE=Jazz
TTITLE0=The Girl from Ipanema - A. C. Jobim
TTITLE1=Morning - C. Fischer
TTITLE2=Gee Baby ain't I Good to You - D. Redman
TTITLE3=Desafinado - A. C. Jobim
TTITLE4=In Walked Bud - T. Monk
TTITLE5=This Masquerade - L. Russell
EXTD=YEAR: 2000
EXTT0=
EXTT1=
EXTT2=
EXTT3=
EXTT4=
EXTT5=
PLAYORDER=
